<?xml version="1.0" encoding="UTF-8"?>
<svg xmlns="http://www.w3.org/2000/svg" viewBox="0 0 500 500">
  <circle cx="250" cy="250" r="240" fill="#f8f9fa" stroke="#e2e8f0" stroke-width="2"/>
  <g transform="translate(100, 100) scale(0.6)">
    <path d="M250,60 C341.127,60 415,133.873 415,225 C415,316.127 341.127,390 250,390 C158.873,390 85,316.127 85,225 C85,133.873 158.873,60 250,60 M250,40 C147.157,40 65,122.157 65,225 C65,327.843 147.157,410 250,410 C352.843,410 435,327.843 435,225 C435,122.157 352.843,40 250,40" fill="#15803d"/>
    <path d="M250,100 C319.036,100 375,155.964 375,225 C375,294.036 319.036,350 250,350 C180.964,350 125,294.036 125,225 C125,155.964 180.964,100 250,100" fill="#15803d"/>
    <path d="M250,140 C297.496,140 335,177.504 335,225 C335,272.496 297.496,310 250,310 C202.504,310 165,272.496 165,225 C165,177.504 202.504,140 250,140" fill="#f8f9fa"/>
    <path d="M250,180 C275.957,180 295,199.043 295,225 C295,250.957 275.957,270 250,270 C224.043,270 205,250.957 205,225 C205,199.043 224.043,180 250,180" fill="#15803d"/>
  </g>
</svg>