<?xml version="1.0" encoding="UTF-8"?>
<svg xmlns="http://www.w3.org/2000/svg" viewBox="0 0 500 500">
  <circle cx="250" cy="250" r="240" fill="#fff" stroke="#000" stroke-width="2"/>
  <path d="M250 50c110.457 0 200 89.543 200 200s-89.543 200-200 200S50 360.457 50 250 139.543 50 250 50zm0 20c-99.411 0-180 80.589-180 180s80.589 180 180 180 180-80.589 180-180S349.411 70 250 70z" fill="#00008B"/>
  <circle cx="250" cy="250" r="150" fill="#FFD700"/>
  <path d="M250 120l26.756 82.361h86.607l-70.06 50.917 26.757 82.361L250 285.722l-70.06 50.917 26.757-82.361-70.06-50.917h86.607L250 120z" fill="#00008B"/>
</svg>