<?xml version="1.0" encoding="UTF-8"?>
<svg xmlns="http://www.w3.org/2000/svg" viewBox="0 0 500 500">
  <circle cx="250" cy="250" r="240" fill="#fff" stroke="#000" stroke-width="2"/>
  <path d="M250 50c110.457 0 200 89.543 200 200s-89.543 200-200 200S50 360.457 50 250 139.543 50 250 50zm0 20c-99.411 0-180 80.589-180 180s80.589 180 180 180 180-80.589 180-180S349.411 70 250 70z" fill="#8B0000"/>
  <circle cx="250" cy="250" r="150" fill="#FFD700"/>
  <path d="M250 120c-71.797 0-130 58.203-130 130s58.203 130 130 130 130-58.203 130-130-58.203-130-130-130zm0 20c60.751 0 110 49.249 110 110s-49.249 110-110 110-110-49.249-110-110 49.249-110 110-110z" fill="#8B0000"/>
  <path d="M250 160l19.021 58.479h61.554l-49.798 36.184 19.021 58.479L250 277.337l-49.798 35.805 19.021-58.479-49.798-36.184h61.554L250 160z" fill="#8B0000"/>
</svg>