<?xml version="1.0" encoding="UTF-8"?>
<svg xmlns="http://www.w3.org/2000/svg" viewBox="0 0 500 500">
  <circle cx="250" cy="250" r="240" fill="#fff" stroke="#000" stroke-width="2"/>
  <path d="M250 50c110.457 0 200 89.543 200 200s-89.543 200-200 200S50 360.457 50 250 139.543 50 250 50zm0 20c-99.411 0-180 80.589-180 180s80.589 180 180 180 180-80.589 180-180S349.411 70 250 70z" fill="#006400"/>
  <circle cx="250" cy="250" r="150" fill="#FFD700"/>
  <path d="M250 120c-71.797 0-130 58.203-130 130s58.203 130 130 130 130-58.203 130-130-58.203-130-130-130zm0 20c60.751 0 110 49.249 110 110s-49.249 110-110 110-110-49.249-110-110 49.249-110 110-110z" fill="#006400"/>
  <path d="M250 150l25.98 80h84.19l-68.17 49.51 26.04 80.15L250 310.15l-68.04 49.51 26.04-80.15-68.17-49.51h84.19L250 150z" fill="#006400"/>
  <path d="M200 200h100v20H200zm0 60h100v20H200z" fill="#006400"/>
</svg>