<?xml version="1.0" encoding="UTF-8"?>
<svg xmlns="http://www.w3.org/2000/svg" viewBox="0 0 500 500">
  <circle cx="250" cy="250" r="240" fill="#fff" stroke="#000" stroke-width="2"/>
  <path d="M250 50c110.457 0 200 89.543 200 200s-89.543 200-200 200S50 360.457 50 250 139.543 50 250 50zm0 20c-99.411 0-180 80.589-180 180s80.589 180 180 180 180-80.589 180-180S349.411 70 250 70z" fill="#000080"/>
  <circle cx="250" cy="250" r="150" fill="#FFD700"/>
  <path d="M250 120c-71.797 0-130 58.203-130 130s58.203 130 130 130 130-58.203 130-130-58.203-130-130-130zm0 20c60.751 0 110 49.249 110 110s-49.249 110-110 110-110-49.249-110-110 49.249-110 110-110z" fill="#000080"/>
  <path d="M250 150l30 92.4h97.1l-78.6 57.1 30 92.4-78.5-57.1-78.5 57.1 30-92.4-78.6-57.1h97.1z" fill="#000080"/>
  <path d="M220 180h60v140h-60z" fill="#000080"/>
  <path d="M180 220h140v60H180z" fill="#000080"/>
</svg>