<?xml version="1.0" encoding="UTF-8"?>
<svg xmlns="http://www.w3.org/2000/svg" viewBox="0 0 500 500">
  <circle cx="250" cy="250" r="240" fill="#fff" stroke="#000" stroke-width="2"/>
  <path d="M250 50c110.457 0 200 89.543 200 200s-89.543 200-200 200S50 360.457 50 250 139.543 50 250 50zm0 20c-99.411 0-180 80.589-180 180s80.589 180 180 180 180-80.589 180-180S349.411 70 250 70z" fill="#DAA520"/>
  <circle cx="250" cy="250" r="150" fill="#FFD700"/>
  <path d="M250 120c-71.797 0-130 58.203-130 130s58.203 130 130 130 130-58.203 130-130-58.203-130-130-130zm0 20c60.751 0 110 49.249 110 110s-49.249 110-110 110-110-49.249-110-110 49.249-110 110-110z" fill="#DAA520"/>
  <path d="M200 160h100v30H200zm0 150h100v30H200z" fill="#DAA520"/>
  <path d="M235 160v180h30V160z" fill="#DAA520"/>
  <path d="M180 220h140v60H180z" fill="#DAA520"/>
  <path d="M250 150l40 50-40 50-40-50z" fill="#DAA520"/>
</svg>